<mxfile host="app.diagrams.net" modified="2022-11-18T02:07:46.145Z" agent="5.0 (Windows NT 10.0; Win64; x64) AppleWebKit/537.36 (KHTML, like Gecko) Chrome/107.0.0.0 Safari/537.36 Edg/107.0.1418.42" etag="1OFkQLNvkc2aAkUM8ij4" version="20.5.1" type="github">
  <diagram id="zy_9c7CzfbLyYuj-oIPn" name="第 1 页">
    <mxGraphModel dx="1375" dy="754" grid="1" gridSize="10" guides="1" tooltips="1" connect="1" arrows="1" fold="1" page="1" pageScale="1" pageWidth="827" pageHeight="1169" math="0" shadow="0">
      <root>
        <mxCell id="0" />
        <mxCell id="1" parent="0" />
        <mxCell id="zuAOPrheiYTzk1cNc-mg-1" style="edgeStyle=orthogonalEdgeStyle;rounded=0;orthogonalLoop=1;jettySize=auto;html=1;exitX=0.5;exitY=1;exitDx=0;exitDy=0;entryX=0.5;entryY=0;entryDx=0;entryDy=0;fontSize=16;" edge="1" parent="1" source="zuAOPrheiYTzk1cNc-mg-2" target="zuAOPrheiYTzk1cNc-mg-4">
          <mxGeometry relative="1" as="geometry" />
        </mxCell>
        <mxCell id="zuAOPrheiYTzk1cNc-mg-2" value="原始数据" style="text;html=1;strokeColor=default;fillColor=none;align=center;verticalAlign=middle;whiteSpace=wrap;rounded=0;fontSize=16;strokeWidth=1;spacingTop=2;spacingBottom=0;" vertex="1" parent="1">
          <mxGeometry x="380" y="190" width="180" height="30" as="geometry" />
        </mxCell>
        <mxCell id="zuAOPrheiYTzk1cNc-mg-3" style="edgeStyle=orthogonalEdgeStyle;rounded=0;orthogonalLoop=1;jettySize=auto;html=1;exitX=0.5;exitY=1;exitDx=0;exitDy=0;entryX=0.5;entryY=0;entryDx=0;entryDy=0;fontSize=16;" edge="1" parent="1" source="zuAOPrheiYTzk1cNc-mg-4" target="zuAOPrheiYTzk1cNc-mg-6">
          <mxGeometry relative="1" as="geometry" />
        </mxCell>
        <mxCell id="zuAOPrheiYTzk1cNc-mg-4" value="&lt;font style=&quot;font-size: 16px;&quot;&gt;TIMESTAMP INT FLOAT等专有压缩算法&lt;/font&gt;" style="rounded=0;whiteSpace=wrap;html=1;" vertex="1" parent="1">
          <mxGeometry x="270" y="250" width="400" height="60" as="geometry" />
        </mxCell>
        <mxCell id="zuAOPrheiYTzk1cNc-mg-5" style="edgeStyle=orthogonalEdgeStyle;rounded=0;orthogonalLoop=1;jettySize=auto;html=1;exitX=0.5;exitY=1;exitDx=0;exitDy=0;fontSize=16;" edge="1" parent="1" source="zuAOPrheiYTzk1cNc-mg-6" target="zuAOPrheiYTzk1cNc-mg-7">
          <mxGeometry relative="1" as="geometry" />
        </mxCell>
        <mxCell id="zuAOPrheiYTzk1cNc-mg-6" value="&lt;font style=&quot;font-size: 16px;&quot;&gt;通用二进制压缩算法（LZ4）&lt;/font&gt;" style="rounded=0;whiteSpace=wrap;html=1;" vertex="1" parent="1">
          <mxGeometry x="290" y="340" width="360" height="60" as="geometry" />
        </mxCell>
        <mxCell id="zuAOPrheiYTzk1cNc-mg-7" value="&lt;font style=&quot;font-size: 16px;&quot;&gt;存储&lt;/font&gt;" style="rounded=0;whiteSpace=wrap;html=1;fontSize=16;" vertex="1" parent="1">
          <mxGeometry x="380" y="440" width="180" height="30" as="geometry" />
        </mxCell>
        <mxCell id="zuAOPrheiYTzk1cNc-mg-8" style="edgeStyle=orthogonalEdgeStyle;rounded=0;orthogonalLoop=1;jettySize=auto;html=1;entryX=0;entryY=0.5;entryDx=0;entryDy=0;fontSize=16;" edge="1" parent="1" target="zuAOPrheiYTzk1cNc-mg-4">
          <mxGeometry relative="1" as="geometry">
            <mxPoint x="230" y="280" as="sourcePoint" />
          </mxGeometry>
        </mxCell>
        <mxCell id="zuAOPrheiYTzk1cNc-mg-9" value="" style="edgeStyle=orthogonalEdgeStyle;rounded=0;orthogonalLoop=1;jettySize=auto;html=1;fontSize=16;" edge="1" parent="1" source="zuAOPrheiYTzk1cNc-mg-10" target="zuAOPrheiYTzk1cNc-mg-4">
          <mxGeometry relative="1" as="geometry" />
        </mxCell>
        <mxCell id="zuAOPrheiYTzk1cNc-mg-10" value="&lt;span style=&quot;&quot;&gt;一层压缩&lt;/span&gt;" style="rounded=1;whiteSpace=wrap;html=1;fontSize=16;" vertex="1" parent="1">
          <mxGeometry x="150" y="267.5" width="80" height="25" as="geometry" />
        </mxCell>
        <mxCell id="zuAOPrheiYTzk1cNc-mg-11" style="edgeStyle=orthogonalEdgeStyle;rounded=0;orthogonalLoop=1;jettySize=auto;html=1;exitX=1;exitY=0.5;exitDx=0;exitDy=0;entryX=0;entryY=0.5;entryDx=0;entryDy=0;fontSize=16;" edge="1" parent="1" source="zuAOPrheiYTzk1cNc-mg-12" target="zuAOPrheiYTzk1cNc-mg-6">
          <mxGeometry relative="1" as="geometry" />
        </mxCell>
        <mxCell id="zuAOPrheiYTzk1cNc-mg-12" value="&lt;span style=&quot;&quot;&gt;二层压缩&lt;/span&gt;" style="rounded=1;whiteSpace=wrap;html=1;fontSize=16;" vertex="1" parent="1">
          <mxGeometry x="150" y="357.5" width="80" height="25" as="geometry" />
        </mxCell>
      </root>
    </mxGraphModel>
  </diagram>
</mxfile>
